<svg width="29" height="29" viewBox="0 0 29 29" fill="none" xmlns="http://www.w3.org/2000/svg">
<path d="M14.5 0.168457C6.58298 0.168457 0.168457 6.58298 0.168457 14.5C0.168457 22.417 6.58298 28.8315 14.5 28.8315C22.417 28.8315 28.8315 22.417 28.8315 14.5C28.8315 6.58298 22.417 0.168457 14.5 0.168457ZM14.5 5.71615C17.3085 5.71615 19.5854 7.99302 19.5854 10.8015C19.5854 13.6101 17.3085 15.8869 14.5 15.8869C11.6915 15.8869 9.41461 13.6101 9.41461 10.8015C9.41461 7.99302 11.6915 5.71615 14.5 5.71615ZM14.5 25.5954C11.1078 25.5954 8.06814 24.0582 6.03399 21.6542C7.12041 19.6085 9.24703 18.1985 11.7262 18.1985C11.8648 18.1985 12.0035 18.2216 12.1365 18.262C12.8877 18.5047 13.6736 18.6608 14.5 18.6608C15.3264 18.6608 16.1181 18.5047 16.8635 18.262C16.9965 18.2216 17.1352 18.1985 17.2738 18.1985C19.753 18.1985 21.8796 19.6085 22.966 21.6542C20.9319 24.0582 17.8922 25.5954 14.5 25.5954Z" fill="white"/>
</svg>
