<svg width="75" height="50" viewBox="0 0 75 50" fill="none" xmlns="http://www.w3.org/2000/svg">
<path d="M37.5 0.168457C29.583 0.168457 23.1685 6.58298 23.1685 14.5C23.1685 22.417 29.583 28.8315 37.5 28.8315C45.417 28.8315 51.8315 22.417 51.8315 14.5C51.8315 6.58298 45.417 0.168457 37.5 0.168457ZM37.5 5.71615C40.3085 5.71615 42.5854 7.99302 42.5854 10.8015C42.5854 13.6101 40.3085 15.8869 37.5 15.8869C34.6915 15.8869 32.4146 13.6101 32.4146 10.8015C32.4146 7.99302 34.6915 5.71615 37.5 5.71615ZM37.5 25.5954C34.1078 25.5954 31.0681 24.0582 29.034 21.6542C30.1204 19.6085 32.247 18.1985 34.7262 18.1985C34.8648 18.1985 35.0035 18.2216 35.1365 18.262C35.8877 18.5047 36.6736 18.6608 37.5 18.6608C38.3264 18.6608 39.1181 18.5047 39.8635 18.262C39.9965 18.2216 40.1352 18.1985 40.2738 18.1985C42.753 18.1985 44.8796 19.6085 45.966 21.6542C43.9319 24.0582 40.8922 25.5954 37.5 25.5954Z" fill="white"/>
<path d="M0.032 45.8315L5.152 34.6315H6.32L11.44 45.8315H10.192L5.488 35.3195H5.968L1.264 45.8315H0.032ZM2.048 42.8395L2.4 41.8795H8.912L9.264 42.8395H2.048ZM17.3888 45.9115C16.6528 45.9115 15.9914 45.7462 15.4048 45.4155C14.8181 45.0742 14.3541 44.5835 14.0128 43.9435C13.6714 43.3035 13.5008 42.5302 13.5008 41.6235C13.5008 40.7062 13.6714 39.9329 14.0128 39.3035C14.3648 38.6635 14.8341 38.1782 15.4208 37.8475C16.0074 37.5169 16.6634 37.3515 17.3888 37.3515C18.1888 37.3515 18.9034 37.5329 19.5328 37.8955C20.1728 38.2475 20.6741 38.7435 21.0368 39.3835C21.3994 40.0235 21.5808 40.7702 21.5808 41.6235C21.5808 42.4662 21.3994 43.2129 21.0368 43.8635C20.6741 44.5035 20.1728 45.0049 19.5328 45.3675C18.9034 45.7302 18.1888 45.9115 17.3888 45.9115ZM13.0528 45.8315V33.9595H14.1888V39.9115L14.0288 41.6075L14.1408 43.3035V45.8315H13.0528ZM17.3088 44.9035C17.9061 44.9035 18.4394 44.7702 18.9088 44.5035C19.3781 44.2262 19.7514 43.8422 20.0288 43.3515C20.3061 42.8502 20.4448 42.2742 20.4448 41.6235C20.4448 40.9622 20.3061 40.3862 20.0288 39.8955C19.7514 39.4049 19.3781 39.0262 18.9088 38.7595C18.4394 38.4822 17.9061 38.3435 17.3088 38.3435C16.7114 38.3435 16.1728 38.4822 15.6927 38.7595C15.2234 39.0262 14.8501 39.4049 14.5728 39.8955C14.3061 40.3862 14.1728 40.9622 14.1728 41.6235C14.1728 42.2742 14.3061 42.8502 14.5728 43.3515C14.8501 43.8422 15.2234 44.2262 15.6927 44.5035C16.1728 44.7702 16.7114 44.9035 17.3088 44.9035ZM27.3205 45.9115C26.5098 45.9115 25.7792 45.7302 25.1285 45.3675C24.4885 44.9942 23.9818 44.4875 23.6085 43.8475C23.2352 43.1969 23.0485 42.4555 23.0485 41.6235C23.0485 40.7809 23.2352 40.0395 23.6085 39.3995C23.9818 38.7595 24.4885 38.2582 25.1285 37.8955C25.7685 37.5329 26.4992 37.3515 27.3205 37.3515C28.1525 37.3515 28.8885 37.5329 29.5285 37.8955C30.1792 38.2582 30.6858 38.7595 31.0485 39.3995C31.4218 40.0395 31.6085 40.7809 31.6085 41.6235C31.6085 42.4555 31.4218 43.1969 31.0485 43.8475C30.6858 44.4875 30.1792 44.9942 29.5285 45.3675C28.8778 45.7302 28.1418 45.9115 27.3205 45.9115ZM27.3205 44.9035C27.9285 44.9035 28.4672 44.7702 28.9365 44.5035C29.4058 44.2262 29.7738 43.8422 30.0405 43.3515C30.3178 42.8502 30.4565 42.2742 30.4565 41.6235C30.4565 40.9622 30.3178 40.3862 30.0405 39.8955C29.7738 39.4049 29.4058 39.0262 28.9365 38.7595C28.4672 38.4822 27.9338 38.3435 27.3365 38.3435C26.7392 38.3435 26.2058 38.4822 25.7365 38.7595C25.2672 39.0262 24.8938 39.4049 24.6165 39.8955C24.3392 40.3862 24.2005 40.9622 24.2005 41.6235C24.2005 42.2742 24.3392 42.8502 24.6165 43.3515C24.8938 43.8422 25.2672 44.2262 25.7365 44.5035C26.2058 44.7702 26.7338 44.9035 27.3205 44.9035ZM37.3998 45.9115C36.6851 45.9115 36.0611 45.7782 35.5278 45.5115C34.9944 45.2449 34.5784 44.8449 34.2798 44.3115C33.9918 43.7782 33.8478 43.1115 33.8478 42.3115V37.4315H34.9838V42.1835C34.9838 43.0795 35.2024 43.7569 35.6398 44.2155C36.0878 44.6635 36.7118 44.8875 37.5118 44.8875C38.0984 44.8875 38.6051 44.7702 39.0318 44.5355C39.4691 44.2902 39.7998 43.9382 40.0238 43.4795C40.2584 43.0209 40.3758 42.4715 40.3758 41.8315V37.4315H41.5118V45.8315H40.4237V43.5275L40.5998 43.9435C40.3331 44.5622 39.9171 45.0475 39.3518 45.3995C38.7971 45.7409 38.1464 45.9115 37.3998 45.9115ZM47.3338 45.9115C46.5444 45.9115 45.9364 45.6982 45.5098 45.2715C45.0831 44.8449 44.8698 44.2422 44.8698 43.4635V35.5755H46.0058V43.3995C46.0058 43.8902 46.1284 44.2689 46.3738 44.5355C46.6298 44.8022 46.9924 44.9355 47.4618 44.9355C47.9631 44.9355 48.3791 44.7915 48.7098 44.5035L49.1098 45.3195C48.8858 45.5222 48.6138 45.6715 48.2938 45.7675C47.9844 45.8635 47.6644 45.9115 47.3338 45.9115ZM43.3658 38.3755V37.4315H48.5658V38.3755H43.3658ZM60.1173 45.9275C58.6879 45.9275 57.5626 45.5169 56.7413 44.6955C55.9199 43.8742 55.5093 42.6582 55.5093 41.0475V34.6315H56.6933V40.9995C56.6933 42.3222 56.9919 43.2982 57.5893 43.9275C58.1866 44.5569 59.0293 44.8715 60.1173 44.8715C61.2159 44.8715 62.0639 44.5569 62.6613 43.9275C63.2586 43.2982 63.5573 42.3222 63.5573 40.9995V34.6315H64.7093V41.0475C64.7093 42.6582 64.2986 43.8742 63.4773 44.6955C62.6666 45.5169 61.5466 45.9275 60.1173 45.9275ZM70.2931 45.9115C69.5998 45.9115 68.9438 45.8155 68.3251 45.6235C67.7065 45.4209 67.2211 45.1702 66.8691 44.8715L67.3811 43.9755C67.7225 44.2315 68.1598 44.4555 68.6931 44.6475C69.2265 44.8289 69.7865 44.9195 70.3731 44.9195C71.1731 44.9195 71.7491 44.7969 72.1011 44.5515C72.4531 44.2955 72.6291 43.9595 72.6291 43.5435C72.6291 43.2342 72.5278 42.9942 72.3251 42.8235C72.1331 42.6422 71.8771 42.5089 71.5571 42.4235C71.2371 42.3275 70.8798 42.2475 70.4851 42.1835C70.0905 42.1195 69.6958 42.0449 69.3011 41.9595C68.9171 41.8742 68.5651 41.7515 68.2451 41.5915C67.9251 41.4209 67.6638 41.1915 67.4611 40.9035C67.2691 40.6155 67.1731 40.2315 67.1731 39.7515C67.1731 39.2929 67.3011 38.8822 67.5571 38.5195C67.8131 38.1569 68.1865 37.8742 68.6771 37.6715C69.1785 37.4582 69.7865 37.3515 70.5011 37.3515C71.0451 37.3515 71.5891 37.4262 72.1331 37.5755C72.6771 37.7142 73.1251 37.9009 73.4771 38.1355L72.9811 39.0475C72.6078 38.7915 72.2078 38.6102 71.7811 38.5035C71.3545 38.3862 70.9278 38.3275 70.5011 38.3275C69.7438 38.3275 69.1838 38.4609 68.8211 38.7275C68.4691 38.9835 68.2931 39.3142 68.2931 39.7195C68.2931 40.0395 68.3891 40.2902 68.5811 40.4715C68.7838 40.6529 69.0451 40.7969 69.3651 40.9035C69.6958 40.9995 70.0531 41.0795 70.4371 41.1435C70.8318 41.2075 71.2211 41.2875 71.6051 41.3835C71.9998 41.4689 72.3571 41.5915 72.6771 41.7515C73.0078 41.9009 73.2691 42.1195 73.4611 42.4075C73.6638 42.6849 73.7651 43.0529 73.7651 43.5115C73.7651 44.0022 73.6265 44.4289 73.3491 44.7915C73.0825 45.1435 72.6878 45.4209 72.1651 45.6235C71.6531 45.8155 71.0291 45.9115 70.2931 45.9115Z" fill="white"/>
</svg>
