<svg width="64" height="48" viewBox="0 0 64 48" fill="none" xmlns="http://www.w3.org/2000/svg">
<path d="M25.9844 19.2379C25.8561 19.2379 25.7277 19.2567 25.6052 19.2964C24.9091 19.5225 24.1771 19.6676 23.4063 19.6676C22.6356 19.6676 21.9035 19.5225 21.2069 19.2964C21.0844 19.2567 20.9566 19.2379 20.8282 19.2379C17.4949 19.2379 14.7949 21.9492 14.8126 25.2868C14.8201 26.6972 15.9797 27.8316 17.3907 27.8316H29.4219C30.8329 27.8316 31.9925 26.6972 32 25.2868C32.0178 21.9492 29.3177 19.2379 25.9844 19.2379ZM23.4063 17.5191C26.2541 17.5191 28.5626 15.2106 28.5626 12.3629C28.5626 9.51514 26.2541 7.20665 23.4063 7.20665C20.5586 7.20665 18.2501 9.51514 18.2501 12.3629C18.2501 15.2106 20.5586 17.5191 23.4063 17.5191ZM46.6094 0.331665H25.9844C24.5627 0.331665 23.4063 1.52673 23.4063 2.99518V5.4879C24.6642 5.4879 25.8287 5.85206 26.8438 6.44395V3.76916H45.75V19.2379H42.3125V15.8004H35.4375V19.2379H31.3426C32.3685 20.1343 33.1215 21.3181 33.4744 22.6754H46.6094C48.0311 22.6754 49.1875 21.4803 49.1875 20.0118V2.99518C49.1875 1.52673 48.0311 0.331665 46.6094 0.331665Z" fill="white"/>
<path d="M6.688 43.9275C5.84533 43.9275 5.06667 43.7889 4.352 43.5115C3.63733 43.2235 3.01867 42.8235 2.496 42.3115C1.97333 41.7995 1.56267 41.1969 1.264 40.5035C0.976 39.8102 0.832 39.0529 0.832 38.2315C0.832 37.4102 0.976 36.6529 1.264 35.9595C1.56267 35.2662 1.97333 34.6635 2.496 34.1515C3.02933 33.6395 3.65333 33.2449 4.368 32.9675C5.08267 32.6795 5.86133 32.5355 6.704 32.5355C7.51467 32.5355 8.27733 32.6742 8.992 32.9515C9.70667 33.2182 10.3093 33.6235 10.8 34.1675L10.048 34.9195C9.58933 34.4502 9.08267 34.1142 8.528 33.9115C7.97333 33.6982 7.376 33.5915 6.736 33.5915C6.064 33.5915 5.44 33.7089 4.864 33.9435C4.288 34.1675 3.78667 34.4929 3.36 34.9195C2.93333 35.3355 2.59733 35.8262 2.352 36.3915C2.11733 36.9462 2 37.5595 2 38.2315C2 38.9035 2.11733 39.5222 2.352 40.0875C2.59733 40.6422 2.93333 41.1329 3.36 41.5595C3.78667 41.9755 4.288 42.3009 4.864 42.5355C5.44 42.7595 6.064 42.8715 6.736 42.8715C7.376 42.8715 7.97333 42.7649 8.528 42.5515C9.08267 42.3382 9.58933 41.9969 10.048 41.5275L10.8 42.2795C10.3093 42.8235 9.70667 43.2342 8.992 43.5115C8.27733 43.7889 7.50933 43.9275 6.688 43.9275ZM16.133 43.9115C15.3223 43.9115 14.5917 43.7302 13.941 43.3675C13.301 42.9942 12.7943 42.4875 12.421 41.8475C12.0477 41.1969 11.861 40.4555 11.861 39.6235C11.861 38.7809 12.0477 38.0395 12.421 37.3995C12.7943 36.7595 13.301 36.2582 13.941 35.8955C14.581 35.5329 15.3117 35.3515 16.133 35.3515C16.965 35.3515 17.701 35.5329 18.341 35.8955C18.9917 36.2582 19.4983 36.7595 19.861 37.3995C20.2343 38.0395 20.421 38.7809 20.421 39.6235C20.421 40.4555 20.2343 41.1969 19.861 41.8475C19.4983 42.4875 18.9917 42.9942 18.341 43.3675C17.6903 43.7302 16.9543 43.9115 16.133 43.9115ZM16.133 42.9035C16.741 42.9035 17.2797 42.7702 17.749 42.5035C18.2183 42.2262 18.5863 41.8422 18.853 41.3515C19.1303 40.8502 19.269 40.2742 19.269 39.6235C19.269 38.9622 19.1303 38.3862 18.853 37.8955C18.5863 37.4049 18.2183 37.0262 17.749 36.7595C17.2797 36.4822 16.7463 36.3435 16.149 36.3435C15.5517 36.3435 15.0183 36.4822 14.549 36.7595C14.0797 37.0262 13.7063 37.4049 13.429 37.8955C13.1517 38.3862 13.013 38.9622 13.013 39.6235C13.013 40.2742 13.1517 40.8502 13.429 41.3515C13.7063 41.8422 14.0797 42.2262 14.549 42.5035C15.0183 42.7702 15.5463 42.9035 16.133 42.9035ZM26.2123 43.9115C25.4976 43.9115 24.8736 43.7782 24.3403 43.5115C23.8069 43.2449 23.3909 42.8449 23.0923 42.3115C22.8043 41.7782 22.6603 41.1115 22.6603 40.3115V35.4315H23.7963V40.1835C23.7963 41.0795 24.0149 41.7569 24.4523 42.2155C24.9003 42.6635 25.5243 42.8875 26.3243 42.8875C26.9109 42.8875 27.4176 42.7702 27.8443 42.5355C28.2816 42.2902 28.6123 41.9382 28.8363 41.4795C29.0709 41.0209 29.1883 40.4715 29.1883 39.8315V35.4315H30.3243V43.8315H29.2362V41.5275L29.4123 41.9435C29.1456 42.5622 28.7296 43.0475 28.1643 43.3995C27.6096 43.7409 26.9589 43.9115 26.2123 43.9115ZM33.4903 43.8315V35.4315H34.5783V37.7195L34.4663 37.3195C34.7009 36.6795 35.0956 36.1942 35.6503 35.8635C36.2049 35.5222 36.8929 35.3515 37.7143 35.3515V36.4555C37.6716 36.4555 37.6289 36.4555 37.5863 36.4555C37.5436 36.4449 37.5009 36.4395 37.4583 36.4395C36.5729 36.4395 35.8796 36.7115 35.3783 37.2555C34.8769 37.7889 34.6263 38.5515 34.6263 39.5435V43.8315H33.4903ZM42.1369 43.9115C41.4435 43.9115 40.7875 43.8155 40.1689 43.6235C39.5502 43.4209 39.0649 43.1702 38.7129 42.8715L39.2249 41.9755C39.5662 42.2315 40.0035 42.4555 40.5369 42.6475C41.0702 42.8289 41.6302 42.9195 42.2169 42.9195C43.0169 42.9195 43.5929 42.7969 43.9449 42.5515C44.2969 42.2955 44.4729 41.9595 44.4729 41.5435C44.4729 41.2342 44.3715 40.9942 44.1689 40.8235C43.9769 40.6422 43.7209 40.5089 43.4009 40.4235C43.0809 40.3275 42.7235 40.2475 42.3289 40.1835C41.9342 40.1195 41.5395 40.0449 41.1449 39.9595C40.7609 39.8742 40.4089 39.7515 40.0889 39.5915C39.7689 39.4209 39.5075 39.1915 39.3049 38.9035C39.1129 38.6155 39.0169 38.2315 39.0169 37.7515C39.0169 37.2929 39.1449 36.8822 39.4009 36.5195C39.6569 36.1569 40.0302 35.8742 40.5209 35.6715C41.0222 35.4582 41.6302 35.3515 42.3449 35.3515C42.8889 35.3515 43.4329 35.4262 43.9769 35.5755C44.5209 35.7142 44.9689 35.9009 45.3209 36.1355L44.8249 37.0475C44.4515 36.7915 44.0515 36.6102 43.6249 36.5035C43.1982 36.3862 42.7715 36.3275 42.3449 36.3275C41.5875 36.3275 41.0275 36.4609 40.6649 36.7275C40.3129 36.9835 40.1369 37.3142 40.1369 37.7195C40.1369 38.0395 40.2329 38.2902 40.4249 38.4715C40.6275 38.6529 40.8889 38.7969 41.2089 38.9035C41.5395 38.9995 41.8969 39.0795 42.2809 39.1435C42.6755 39.2075 43.0649 39.2875 43.4489 39.3835C43.8435 39.4689 44.2009 39.5915 44.5209 39.7515C44.8515 39.9009 45.1129 40.1195 45.3049 40.4075C45.5075 40.6849 45.6089 41.0529 45.6089 41.5115C45.6089 42.0022 45.4702 42.4289 45.1929 42.7915C44.9262 43.1435 44.5315 43.4209 44.0089 43.6235C43.4969 43.8155 42.8729 43.9115 42.1369 43.9115ZM51.2614 43.9115C50.3867 43.9115 49.6187 43.7302 48.9574 43.3675C48.296 42.9942 47.7787 42.4875 47.4054 41.8475C47.032 41.1969 46.8454 40.4555 46.8454 39.6235C46.8454 38.7915 47.0214 38.0555 47.3734 37.4155C47.736 36.7755 48.2267 36.2742 48.8454 35.9115C49.4747 35.5382 50.1787 35.3515 50.9574 35.3515C51.7467 35.3515 52.4454 35.5329 53.0534 35.8955C53.672 36.2475 54.1574 36.7489 54.5094 37.3995C54.8614 38.0395 55.0374 38.7809 55.0374 39.6235C55.0374 39.6769 55.032 39.7355 55.0214 39.7995C55.0214 39.8529 55.0214 39.9115 55.0214 39.9755H47.7094V39.1275H54.4134L53.9654 39.4635C53.9654 38.8555 53.832 38.3169 53.5654 37.8475C53.3094 37.3675 52.9574 36.9942 52.5094 36.7275C52.0614 36.4609 51.544 36.3275 50.9574 36.3275C50.3814 36.3275 49.864 36.4609 49.4054 36.7275C48.9467 36.9942 48.5894 37.3675 48.3334 37.8475C48.0774 38.3275 47.9494 38.8769 47.9494 39.4955V39.6715C47.9494 40.3115 48.088 40.8769 48.3654 41.3675C48.6534 41.8475 49.048 42.2262 49.5494 42.5035C50.0614 42.7702 50.6427 42.9035 51.2934 42.9035C51.8054 42.9035 52.28 42.8129 52.7174 42.6315C53.1654 42.4502 53.5494 42.1729 53.8694 41.7995L54.5094 42.5355C54.136 42.9835 53.6667 43.3249 53.1014 43.5595C52.5467 43.7942 51.9334 43.9115 51.2614 43.9115ZM59.6056 43.9115C58.9123 43.9115 58.2563 43.8155 57.6376 43.6235C57.019 43.4209 56.5336 43.1702 56.1816 42.8715L56.6936 41.9755C57.035 42.2315 57.4723 42.4555 58.0056 42.6475C58.539 42.8289 59.099 42.9195 59.6856 42.9195C60.4856 42.9195 61.0616 42.7969 61.4136 42.5515C61.7656 42.2955 61.9416 41.9595 61.9416 41.5435C61.9416 41.2342 61.8403 40.9942 61.6376 40.8235C61.4456 40.6422 61.1896 40.5089 60.8696 40.4235C60.5496 40.3275 60.1923 40.2475 59.7976 40.1835C59.403 40.1195 59.0083 40.0449 58.6136 39.9595C58.2296 39.8742 57.8776 39.7515 57.5576 39.5915C57.2376 39.4209 56.9763 39.1915 56.7736 38.9035C56.5816 38.6155 56.4856 38.2315 56.4856 37.7515C56.4856 37.2929 56.6136 36.8822 56.8696 36.5195C57.1256 36.1569 57.499 35.8742 57.9896 35.6715C58.491 35.4582 59.099 35.3515 59.8136 35.3515C60.3576 35.3515 60.9016 35.4262 61.4456 35.5755C61.9896 35.7142 62.4376 35.9009 62.7896 36.1355L62.2936 37.0475C61.9203 36.7915 61.5203 36.6102 61.0936 36.5035C60.667 36.3862 60.2403 36.3275 59.8136 36.3275C59.0563 36.3275 58.4963 36.4609 58.1336 36.7275C57.7816 36.9835 57.6056 37.3142 57.6056 37.7195C57.6056 38.0395 57.7016 38.2902 57.8936 38.4715C58.0963 38.6529 58.3576 38.7969 58.6776 38.9035C59.0083 38.9995 59.3656 39.0795 59.7496 39.1435C60.1443 39.2075 60.5336 39.2875 60.9176 39.3835C61.3123 39.4689 61.6696 39.5915 61.9896 39.7515C62.3203 39.9009 62.5816 40.1195 62.7736 40.4075C62.9763 40.6849 63.0776 41.0529 63.0776 41.5115C63.0776 42.0022 62.939 42.4289 62.6616 42.7915C62.395 43.1435 62.0003 43.4209 61.4776 43.6235C60.9656 43.8155 60.3416 43.9115 59.6056 43.9115Z" fill="white"/>
</svg>
