<svg width="36" height="28" viewBox="0 0 36 28" fill="none" xmlns="http://www.w3.org/2000/svg">
<path d="M11.9844 19.2379C11.8561 19.2379 11.7277 19.2567 11.6052 19.2964C10.9091 19.5225 10.1771 19.6676 9.40632 19.6676C8.63557 19.6676 7.90349 19.5225 7.20686 19.2964C7.0844 19.2567 6.95657 19.2379 6.8282 19.2379C3.4949 19.2379 0.794862 21.9492 0.812587 25.2868C0.820106 26.6972 1.97972 27.8316 3.39071 27.8316H15.4219C16.8329 27.8316 17.9925 26.6972 18 25.2868C18.0178 21.9492 15.3177 19.2379 11.9844 19.2379ZM9.40632 17.5191C12.2541 17.5191 14.5626 15.2106 14.5626 12.3629C14.5626 9.51514 12.2541 7.20665 9.40632 7.20665C6.55857 7.20665 4.25008 9.51514 4.25008 12.3629C4.25008 15.2106 6.55857 17.5191 9.40632 17.5191ZM32.6094 0.331665H11.9844C10.5627 0.331665 9.40632 1.52673 9.40632 2.99518V5.4879C10.6642 5.4879 11.8287 5.85206 12.8438 6.44395V3.76916H31.75V19.2379H28.3125V15.8004H21.4375V19.2379H17.3426C18.3685 20.1343 19.1215 21.3181 19.4744 22.6754H32.6094C34.0311 22.6754 35.1875 21.4803 35.1875 20.0118V2.99518C35.1875 1.52673 34.0311 0.331665 32.6094 0.331665Z" fill="white"/>
</svg>
