<svg width="50" height="49" viewBox="0 0 50 49" fill="none" xmlns="http://www.w3.org/2000/svg">
<path d="M24.5338 7.58128L13.2794 16.8506V26.8548C13.2794 27.1138 13.3823 27.3623 13.5655 27.5454C13.7487 27.7286 13.9971 27.8315 14.2561 27.8315L21.0965 27.8138C21.3547 27.8125 21.6019 27.709 21.784 27.526C21.9661 27.343 22.0683 27.0953 22.0683 26.8371V20.9947C22.0683 20.7357 22.1712 20.4873 22.3544 20.3041C22.5375 20.121 22.786 20.0181 23.045 20.0181H26.9517C27.2107 20.0181 27.4592 20.121 27.6423 20.3041C27.8255 20.4873 27.9284 20.7357 27.9284 20.9947V26.8328C27.928 26.9613 27.953 27.0887 28.0019 27.2075C28.0508 27.3264 28.1226 27.4344 28.2134 27.5254C28.3041 27.6164 28.4119 27.6886 28.5306 27.7379C28.6493 27.7872 28.7766 27.8126 28.9051 27.8126L35.743 27.8315C36.0021 27.8315 36.2505 27.7286 36.4337 27.5454C36.6168 27.3623 36.7197 27.1138 36.7197 26.8548V16.8439L25.4678 7.58128C25.3355 7.47466 25.1707 7.41651 25.0008 7.41651C24.8309 7.41651 24.6661 7.47466 24.5338 7.58128ZM42.3112 13.8815L37.2081 9.67504V1.22006C37.2081 1.02578 37.1309 0.839468 36.9935 0.702096C36.8561 0.564724 36.6698 0.487549 36.4755 0.487549H33.0572C32.8629 0.487549 32.6766 0.564724 32.5392 0.702096C32.4018 0.839468 32.3247 1.02578 32.3247 1.22006V5.65234L26.8595 1.15596C26.3351 0.724381 25.677 0.488412 24.9977 0.488412C24.3185 0.488412 23.6604 0.724381 23.136 1.15596L7.6843 13.8815C7.61012 13.9428 7.54875 14.0181 7.5037 14.1031C7.45865 14.1882 7.43079 14.2812 7.42172 14.377C7.41265 14.4728 7.42254 14.5695 7.45084 14.6615C7.47914 14.7534 7.52528 14.8389 7.58663 14.9131L9.14321 16.8054C9.20439 16.8798 9.27965 16.9414 9.36467 16.9867C9.44969 17.0319 9.5428 17.06 9.63868 17.0692C9.73456 17.0785 9.83132 17.0687 9.92343 17.0405C10.0155 17.0123 10.1012 16.9662 10.1754 16.9049L24.5338 5.07855C24.6661 4.97192 24.8309 4.91377 25.0008 4.91377C25.1707 4.91377 25.3355 4.97192 25.4678 5.07855L39.8268 16.9049C39.9009 16.9662 39.9864 17.0124 40.0784 17.0407C40.1704 17.069 40.267 17.0789 40.3628 17.0698C40.4586 17.0607 40.5517 17.0329 40.6367 16.9878C40.7218 16.9428 40.7971 16.8814 40.8584 16.8072L42.415 14.9149C42.4763 14.8403 42.5222 14.7544 42.5502 14.662C42.5781 14.5696 42.5876 14.4727 42.5779 14.3766C42.5683 14.2806 42.5397 14.1874 42.494 14.1024C42.4482 14.0174 42.3861 13.9424 42.3112 13.8815Z" fill="white"/>
<path d="M10.016 33.6314H11.184V44.8314H10.016V33.6314ZM3.008 44.8314H1.824V33.6314H3.008V44.8314ZM10.128 39.6634H2.88V38.6234H10.128V39.6634ZM18.0236 44.9114C17.213 44.9114 16.4823 44.7301 15.8316 44.3674C15.1916 43.9941 14.685 43.4874 14.3116 42.8474C13.9383 42.1968 13.7516 41.4554 13.7516 40.6234C13.7516 39.7808 13.9383 39.0394 14.3116 38.3994C14.685 37.7594 15.1916 37.2581 15.8316 36.8954C16.4716 36.5328 17.2023 36.3514 18.0236 36.3514C18.8556 36.3514 19.5916 36.5328 20.2316 36.8954C20.8823 37.2581 21.389 37.7594 21.7516 38.3994C22.125 39.0394 22.3116 39.7808 22.3116 40.6234C22.3116 41.4554 22.125 42.1968 21.7516 42.8474C21.389 43.4874 20.8823 43.9941 20.2316 44.3674C19.581 44.7301 18.845 44.9114 18.0236 44.9114ZM18.0236 43.9034C18.6316 43.9034 19.1703 43.7701 19.6396 43.5034C20.109 43.2261 20.477 42.8421 20.7436 42.3514C21.021 41.8501 21.1596 41.2741 21.1596 40.6234C21.1596 39.9621 21.021 39.3861 20.7436 38.8954C20.477 38.4048 20.109 38.0261 19.6396 37.7594C19.1703 37.4821 18.637 37.3434 18.0396 37.3434C17.4423 37.3434 16.909 37.4821 16.4396 37.7594C15.9703 38.0261 15.597 38.4048 15.3196 38.8954C15.0423 39.3861 14.9036 39.9621 14.9036 40.6234C14.9036 41.2741 15.0423 41.8501 15.3196 42.3514C15.597 42.8421 15.9703 43.2261 16.4396 43.5034C16.909 43.7701 17.437 43.9034 18.0236 43.9034ZM35.1269 36.3514C35.8095 36.3514 36.4015 36.4848 36.9029 36.7514C37.4149 37.0074 37.8095 37.4021 38.0869 37.9354C38.3749 38.4688 38.5189 39.1408 38.5189 39.9514V44.8314H37.3829V40.0634C37.3829 39.1781 37.1695 38.5114 36.7429 38.0634C36.3269 37.6048 35.7349 37.3754 34.9669 37.3754C34.3909 37.3754 33.8895 37.4981 33.4629 37.7434C33.0469 37.9781 32.7215 38.3248 32.4869 38.7834C32.2629 39.2314 32.1509 39.7754 32.1509 40.4154V44.8314H31.0149V40.0634C31.0149 39.1781 30.8015 38.5114 30.3749 38.0634C29.9482 37.6048 29.3509 37.3754 28.5829 37.3754C28.0175 37.3754 27.5215 37.4981 27.0949 37.7434C26.6682 37.9781 26.3375 38.3248 26.1029 38.7834C25.8789 39.2314 25.7669 39.7754 25.7669 40.4154V44.8314H24.6309V36.4314H25.7189V38.7034L25.5429 38.3034C25.7989 37.6954 26.2095 37.2208 26.7749 36.8794C27.3509 36.5274 28.0282 36.3514 28.8069 36.3514C29.6282 36.3514 30.3269 36.5594 30.9029 36.9754C31.4789 37.3808 31.8522 37.9941 32.0229 38.8154L31.5749 38.6394C31.8202 37.9568 32.2522 37.4074 32.8709 36.9914C33.5002 36.5648 34.2522 36.3514 35.1269 36.3514ZM45.1676 44.9114C44.293 44.9114 43.525 44.7301 42.8636 44.3674C42.2023 43.9941 41.685 43.4874 41.3116 42.8474C40.9383 42.1968 40.7516 41.4554 40.7516 40.6234C40.7516 39.7914 40.9276 39.0554 41.2796 38.4154C41.6423 37.7754 42.133 37.2741 42.7516 36.9114C43.381 36.5381 44.085 36.3514 44.8636 36.3514C45.653 36.3514 46.3516 36.5328 46.9596 36.8954C47.5783 37.2474 48.0636 37.7488 48.4156 38.3994C48.7676 39.0394 48.9436 39.7808 48.9436 40.6234C48.9436 40.6768 48.9383 40.7354 48.9276 40.7994C48.9276 40.8528 48.9276 40.9114 48.9276 40.9754H41.6156V40.1274H48.3196L47.8716 40.4634C47.8716 39.8554 47.7383 39.3168 47.4716 38.8474C47.2156 38.3674 46.8636 37.9941 46.4156 37.7274C45.9676 37.4608 45.4503 37.3274 44.8636 37.3274C44.2876 37.3274 43.7703 37.4608 43.3116 37.7274C42.853 37.9941 42.4956 38.3674 42.2396 38.8474C41.9836 39.3274 41.8556 39.8768 41.8556 40.4954V40.6714C41.8556 41.3114 41.9943 41.8768 42.2716 42.3674C42.5596 42.8474 42.9543 43.2261 43.4556 43.5034C43.9676 43.7701 44.549 43.9034 45.1996 43.9034C45.7116 43.9034 46.1863 43.8128 46.6236 43.6314C47.0716 43.4501 47.4556 43.1728 47.7756 42.7994L48.4156 43.5354C48.0423 43.9834 47.573 44.3248 47.0076 44.5594C46.453 44.7941 45.8396 44.9114 45.1676 44.9114Z" fill="white"/>
</svg>
