<svg width="36" height="28" viewBox="0 0 36 28" fill="none" xmlns="http://www.w3.org/2000/svg">
<path d="M17.5338 7.58128L6.27944 16.8506V26.8548C6.27944 27.1138 6.38234 27.3623 6.5655 27.5454C6.74866 27.7286 6.99709 27.8315 7.25612 27.8315L14.0965 27.8138C14.3547 27.8125 14.6019 27.709 14.784 27.526C14.9661 27.343 15.0683 27.0953 15.0683 26.8371V20.9947C15.0683 20.7357 15.1712 20.4873 15.3544 20.3041C15.5375 20.121 15.786 20.0181 16.045 20.0181H19.9517C20.2107 20.0181 20.4592 20.121 20.6423 20.3041C20.8255 20.4873 20.9284 20.7357 20.9284 20.9947V26.8328C20.928 26.9613 20.953 27.0887 21.0019 27.2075C21.0508 27.3264 21.1226 27.4344 21.2134 27.5254C21.3041 27.6164 21.4119 27.6886 21.5306 27.7379C21.6493 27.7872 21.7766 27.8126 21.9051 27.8126L28.743 27.8315C29.0021 27.8315 29.2505 27.7286 29.4337 27.5454C29.6168 27.3623 29.7197 27.1138 29.7197 26.8548V16.8439L18.4678 7.58128C18.3355 7.47466 18.1707 7.41651 18.0008 7.41651C17.8309 7.41651 17.6661 7.47466 17.5338 7.58128ZM35.3112 13.8815L30.2081 9.67504V1.22006C30.2081 1.02578 30.1309 0.839468 29.9935 0.702096C29.8561 0.564724 29.6698 0.487549 29.4755 0.487549H26.0572C25.8629 0.487549 25.6766 0.564724 25.5392 0.702096C25.4018 0.839468 25.3247 1.02578 25.3247 1.22006V5.65234L19.8595 1.15596C19.3351 0.724381 18.677 0.488412 17.9977 0.488412C17.3185 0.488412 16.6604 0.724381 16.136 1.15596L0.684296 13.8815C0.610122 13.9428 0.548754 14.0181 0.5037 14.1031C0.458646 14.1882 0.430788 14.2812 0.421718 14.377C0.412648 14.4728 0.422544 14.5695 0.45084 14.6615C0.479135 14.7534 0.525277 14.8389 0.586628 14.9131L2.14321 16.8054C2.20439 16.8798 2.27965 16.9414 2.36467 16.9867C2.44969 17.0319 2.5428 17.06 2.63868 17.0692C2.73456 17.0785 2.83132 17.0687 2.92343 17.0405C3.01553 17.0123 3.10117 16.9662 3.17544 16.9049L17.5338 5.07855C17.6661 4.97192 17.8309 4.91377 18.0008 4.91377C18.1707 4.91377 18.3355 4.97192 18.4678 5.07855L32.8268 16.9049C32.9009 16.9662 32.9864 17.0124 33.0784 17.0407C33.1704 17.069 33.267 17.0789 33.3628 17.0698C33.4586 17.0607 33.5517 17.0329 33.6367 16.9878C33.7218 16.9428 33.7971 16.8814 33.8584 16.8072L35.415 14.9149C35.4763 14.8403 35.5222 14.7544 35.5502 14.662C35.5781 14.5696 35.5876 14.4727 35.5779 14.3766C35.5683 14.2806 35.5397 14.1874 35.494 14.1024C35.4482 14.0174 35.3861 13.9424 35.3112 13.8815Z" fill="white"/>
</svg>
